<?xml version="1.0" standalone="no"?><!-- Generator: Gravit.io --><svg xmlns="http://www.w3.org/2000/svg" xmlns:xlink="http://www.w3.org/1999/xlink" style="isolation:isolate" viewBox="2.184 260.004 59.579 58.2" width="59.579" height="58.2"><path d=" M 32.108 267.004 C 19.529 266.955 9.277 276.784 9.184 288.981 C 9.13 301.179 19.262 311.117 31.84 311.204 C 44.418 311.253 54.67 301.425 54.763 289.227 C 54.818 277.029 44.686 267.091 32.108 267.004 L 32.108 267.004 Z  M 32.087 270.404 C 42.756 270.462 51.32 278.862 51.257 289.208 C 51.194 299.554 42.529 307.861 31.86 307.804 C 26.744 307.783 21.847 305.788 18.251 302.26 C 14.654 298.733 12.654 293.962 12.69 289 C 12.753 278.654 21.418 270.347 32.087 270.404 Z  M 30.313 273.795 L 30.21 290.795 L 40.729 290.851 L 40.749 287.451 L 33.737 287.414 L 33.819 273.814 L 30.313 273.795 Z " fill="rgb(40,181,117)"/></svg>