<?xml version="1.0" standalone="no"?><!-- Generator: Gravit.io --><svg xmlns="http://www.w3.org/2000/svg" xmlns:xlink="http://www.w3.org/1999/xlink" style="isolation:isolate" viewBox="1.4 324.9 59.6 58.2" width="59.6" height="58.2"><path d=" M 17.9 376.1 L 27.4 367.6 L 19.8 367.6 L 19.8 355.7 C 19.8 352.861 22.327 350.6 25.5 350.6 L 38.8 350.6 L 38.8 347.2 L 25.5 347.2 C 20.275 347.2 16 351.025 16 355.7 L 16 367.6 L 8.4 367.6 L 17.9 376.1 Z  M 36.9 360.8 C 42.141 360.787 46.385 356.989 46.4 352.3 L 46.4 340.4 L 54 340.4 L 46.4 333.6 L 44.5 331.9 L 42.6 333.6 L 35 340.4 L 42.6 340.4 L 42.6 352.3 C 42.6 355.139 40.073 357.4 36.9 357.4 L 23.6 357.4 L 23.6 360.8 L 36.9 360.8 Z " fill="rgb(255,225,0)"/></svg>