<?xml version="1.0" standalone="no"?><!-- Generator: Gravit.io --><svg xmlns="http://www.w3.org/2000/svg" xmlns:xlink="http://www.w3.org/1999/xlink" style="isolation:isolate" viewBox="2.184 386 59.6 58.2" width="59.6" height="58.2"><path d=" M 31.983 393 C 19.422 393 9.184 401.919 9.184 413.083 C 9.184 419.565 12.684 425.208 18.066 428.892 C 18.059 429.108 18.075 429.462 17.792 430.514 C 17.447 431.82 16.742 433.657 15.318 435.728 L 14.302 437.2 L 16.073 437.2 C 22.211 437.2 25.762 433.147 26.311 432.495 C 28.139 432.931 30.022 433.17 31.984 433.17 C 44.546 433.17 54.784 424.25 54.784 413.083 C 54.783 401.92 44.545 393 31.983 393 Z  M 32.975 423.337 L 30.298 423.337 L 30.298 420.424 L 32.975 420.424 L 32.975 423.337 Z  M 37.435 410.682 C 37.041 411.282 36.246 412.189 34.957 413.393 C 34.067 414.295 33.47 414.998 33.173 415.602 C 32.874 416.105 32.776 416.908 32.776 418.114 L 30.298 418.114 C 30.298 416.808 30.496 415.705 30.794 414.899 C 31.093 414.095 31.785 413.193 32.874 412.086 L 33.966 410.979 C 34.263 410.682 34.563 410.38 34.759 409.975 C 35.156 409.375 35.352 408.77 35.352 408.068 C 35.352 407.166 35.058 406.36 34.563 405.758 C 34.067 405.055 33.076 404.753 31.882 404.753 C 30.299 404.753 29.207 405.356 28.615 406.459 C 28.316 407.064 28.119 408.068 28.018 409.175 L 25.54 409.175 C 25.641 407.264 26.137 405.659 27.324 404.45 C 28.413 403.245 30.001 402.646 31.983 402.646 C 33.768 402.646 35.255 403.148 36.343 404.25 C 37.435 405.254 38.032 406.664 38.032 408.268 C 38.032 409.273 37.83 410.077 37.435 410.682 Z " fill="rgb(8,111,161)"/></svg>